<mxfile host="app.diagrams.net" modified="2022-07-13T23:37:33.449Z" agent="5.0 (Windows NT 10.0; Win64; x64) AppleWebKit/537.36 (KHTML, like Gecko) Chrome/103.0.0.0 Safari/537.36" etag="5rsmGLg40H7MenfGQEDC" version="20.1.1" type="github">
  <diagram id="r3GSehfCi53XRfhJ9qvS" name="Page-1">
    <mxGraphModel dx="2249" dy="762" grid="1" gridSize="10" guides="1" tooltips="1" connect="1" arrows="1" fold="1" page="1" pageScale="1" pageWidth="827" pageHeight="1169" math="0" shadow="0">
      <root>
        <mxCell id="0" />
        <mxCell id="1" parent="0" />
        <mxCell id="gNYvgKo4hCuTOKzpjzs8-8" value="&lt;h2&gt;Click-to-start&lt;/h2&gt;&lt;p&gt;&lt;font face=&quot;Comic Sans MS&quot;&gt;Click on board to start drow.&lt;br&gt;(every single time drowing new fractal pattern)&lt;/font&gt;&lt;/p&gt;" style="text;html=1;strokeColor=none;fillColor=none;spacing=5;spacingTop=-20;whiteSpace=wrap;overflow=hidden;rounded=0;fontSize=22;fontColor=default;" vertex="1" parent="1">
          <mxGeometry x="510" y="30" width="303" height="172" as="geometry" />
        </mxCell>
        <mxCell id="gNYvgKo4hCuTOKzpjzs8-1" value="Graphic board" style="swimlane;fillColor=#e6d0de;strokeColor=#996185;gradientColor=#d5739d;" vertex="1" parent="1">
          <mxGeometry x="160" y="60" width="240" height="260" as="geometry" />
        </mxCell>
        <mxCell id="gNYvgKo4hCuTOKzpjzs8-2" value="" style="swimlane;startSize=0;fillColor=#f8cecc;strokeColor=#b85450;" vertex="1" parent="gNYvgKo4hCuTOKzpjzs8-1">
          <mxGeometry width="240" height="260" as="geometry">
            <mxRectangle width="50" height="40" as="alternateBounds" />
          </mxGeometry>
        </mxCell>
        <mxCell id="gNYvgKo4hCuTOKzpjzs8-3" value="" style="whiteSpace=wrap;html=1;aspect=fixed;" vertex="1" parent="gNYvgKo4hCuTOKzpjzs8-2">
          <mxGeometry y="20" width="240" height="240" as="geometry" />
        </mxCell>
        <mxCell id="gNYvgKo4hCuTOKzpjzs8-10" value="" style="shape=mxgraph.arrows2.wedgeArrow;html=1;fillColor=#000000;bendable=0;rounded=0;fontFamily=Comic Sans MS;fontSize=22;fontColor=default;" edge="1" parent="gNYvgKo4hCuTOKzpjzs8-2">
          <mxGeometry width="100" height="100" relative="1" as="geometry">
            <mxPoint x="100" y="190" as="sourcePoint" />
            <mxPoint x="80" y="170" as="targetPoint" />
          </mxGeometry>
        </mxCell>
        <mxCell id="gNYvgKo4hCuTOKzpjzs8-14" value="" style="verticalLabelPosition=bottom;verticalAlign=top;html=1;shape=mxgraph.basic.sun;fontFamily=Comic Sans MS;fontSize=22;fillColor=#e6d0de;strokeColor=#996185;gradientColor=#d5739d;" vertex="1" parent="gNYvgKo4hCuTOKzpjzs8-2">
          <mxGeometry x="20" y="120" width="70" height="60" as="geometry" />
        </mxCell>
        <mxCell id="gNYvgKo4hCuTOKzpjzs8-12" value="" style="shape=mxgraph.arrows2.wedgeArrow;html=1;fillColor=#000000;bendable=0;rounded=0;fontFamily=Comic Sans MS;fontSize=22;fontColor=default;" edge="1" parent="gNYvgKo4hCuTOKzpjzs8-2">
          <mxGeometry width="100" height="100" relative="1" as="geometry">
            <mxPoint x="210" y="220" as="sourcePoint" />
            <mxPoint x="190" y="200" as="targetPoint" />
          </mxGeometry>
        </mxCell>
        <mxCell id="gNYvgKo4hCuTOKzpjzs8-15" value="" style="verticalLabelPosition=bottom;verticalAlign=top;html=1;shape=mxgraph.basic.4_point_star_2;dx=0.8;fontFamily=Comic Sans MS;fontSize=22;fillColor=#dae8fc;strokeColor=#6c8ebf;gradientColor=#7ea6e0;" vertex="1" parent="gNYvgKo4hCuTOKzpjzs8-2">
          <mxGeometry x="140" y="150" width="60" height="60" as="geometry" />
        </mxCell>
        <mxCell id="gNYvgKo4hCuTOKzpjzs8-17" value="" style="verticalLabelPosition=bottom;verticalAlign=top;html=1;shape=mxgraph.basic.4_point_star_2;dx=0.8;fontFamily=Comic Sans MS;fontSize=22;rotation=-45;fillColor=#f5f5f5;gradientColor=#b3b3b3;strokeColor=#666666;" vertex="1" parent="gNYvgKo4hCuTOKzpjzs8-2">
          <mxGeometry x="140" y="150" width="60" height="60" as="geometry" />
        </mxCell>
        <mxCell id="gNYvgKo4hCuTOKzpjzs8-19" value="" style="verticalLabelPosition=bottom;verticalAlign=top;html=1;shape=mxgraph.basic.donut;dx=6.25;fontFamily=Comic Sans MS;fontSize=22;rotation=-40;fillColor=#dae8fc;gradientColor=#7ea6e0;strokeColor=#6c8ebf;" vertex="1" parent="gNYvgKo4hCuTOKzpjzs8-2">
          <mxGeometry x="163.73000000000002" y="173.76" width="12.53" height="12.49" as="geometry" />
        </mxCell>
        <mxCell id="gNYvgKo4hCuTOKzpjzs8-20" value="" style="verticalLabelPosition=bottom;verticalAlign=top;html=1;shape=mxgraph.basic.4_point_star_2;dx=0.93;fontFamily=Comic Sans MS;fontSize=22;fillColor=#dae8fc;gradientColor=#7ea6e0;strokeColor=#6c8ebf;" vertex="1" parent="gNYvgKo4hCuTOKzpjzs8-2">
          <mxGeometry x="25" y="120" width="60" height="60" as="geometry" />
        </mxCell>
        <mxCell id="gNYvgKo4hCuTOKzpjzs8-27" value="" style="verticalLabelPosition=bottom;verticalAlign=top;html=1;shape=mxgraph.basic.4_point_star_2;dx=0.93;fontFamily=Comic Sans MS;fontSize=22;fillColor=#dae8fc;gradientColor=#7ea6e0;strokeColor=#6c8ebf;rotation=-45;" vertex="1" parent="gNYvgKo4hCuTOKzpjzs8-2">
          <mxGeometry x="25" y="120" width="60" height="60" as="geometry" />
        </mxCell>
        <mxCell id="gNYvgKo4hCuTOKzpjzs8-28" value="" style="verticalLabelPosition=bottom;verticalAlign=top;html=1;shape=mxgraph.basic.4_point_star_2;dx=0.93;fontFamily=Comic Sans MS;fontSize=22;fillColor=#dae8fc;gradientColor=#7ea6e0;strokeColor=#6c8ebf;rotation=-15;" vertex="1" parent="gNYvgKo4hCuTOKzpjzs8-2">
          <mxGeometry x="25" y="120" width="60" height="60" as="geometry" />
        </mxCell>
        <mxCell id="gNYvgKo4hCuTOKzpjzs8-29" value="" style="verticalLabelPosition=bottom;verticalAlign=top;html=1;shape=mxgraph.basic.4_point_star_2;dx=0.93;fontFamily=Comic Sans MS;fontSize=22;fillColor=#dae8fc;gradientColor=#7ea6e0;strokeColor=#6c8ebf;rotation=-30;" vertex="1" parent="gNYvgKo4hCuTOKzpjzs8-2">
          <mxGeometry x="25" y="120" width="60" height="60" as="geometry" />
        </mxCell>
        <mxCell id="gNYvgKo4hCuTOKzpjzs8-30" value="" style="verticalLabelPosition=bottom;verticalAlign=top;html=1;shape=mxgraph.basic.4_point_star_2;dx=0.93;fontFamily=Comic Sans MS;fontSize=22;fillColor=#dae8fc;gradientColor=#7ea6e0;strokeColor=#6c8ebf;rotation=-45;" vertex="1" parent="gNYvgKo4hCuTOKzpjzs8-2">
          <mxGeometry x="25" y="120" width="60" height="60" as="geometry" />
        </mxCell>
        <mxCell id="gNYvgKo4hCuTOKzpjzs8-31" value="" style="verticalLabelPosition=bottom;verticalAlign=top;html=1;shape=mxgraph.basic.4_point_star_2;dx=0.93;fontFamily=Comic Sans MS;fontSize=22;fillColor=#dae8fc;gradientColor=#7ea6e0;strokeColor=#6c8ebf;rotation=15;" vertex="1" parent="gNYvgKo4hCuTOKzpjzs8-2">
          <mxGeometry x="25" y="120" width="60" height="60" as="geometry" />
        </mxCell>
        <mxCell id="gNYvgKo4hCuTOKzpjzs8-32" value="" style="verticalLabelPosition=bottom;verticalAlign=top;html=1;shape=mxgraph.basic.4_point_star_2;dx=0.93;fontFamily=Comic Sans MS;fontSize=22;fillColor=#dae8fc;gradientColor=#7ea6e0;strokeColor=#6c8ebf;rotation=30;" vertex="1" parent="gNYvgKo4hCuTOKzpjzs8-2">
          <mxGeometry x="25" y="120" width="60" height="60" as="geometry" />
        </mxCell>
        <mxCell id="gNYvgKo4hCuTOKzpjzs8-64" value="" style="verticalLabelPosition=bottom;verticalAlign=top;html=1;shape=mxgraph.basic.4_point_star_2;dx=0.93;fontFamily=Comic Sans MS;fontSize=22;fillColor=#f8cecc;gradientColor=#ea6b66;strokeColor=#b85450;" vertex="1" parent="gNYvgKo4hCuTOKzpjzs8-2">
          <mxGeometry x="123.5" y="60" width="38" height="24" as="geometry" />
        </mxCell>
        <mxCell id="gNYvgKo4hCuTOKzpjzs8-65" value="" style="verticalLabelPosition=bottom;verticalAlign=top;html=1;shape=mxgraph.basic.4_point_star_2;dx=0.93;fontFamily=Comic Sans MS;fontSize=22;fillColor=#f8cecc;gradientColor=#ea6b66;strokeColor=#b85450;" vertex="1" parent="gNYvgKo4hCuTOKzpjzs8-2">
          <mxGeometry x="133.5" y="20" width="38" height="24" as="geometry" />
        </mxCell>
        <mxCell id="gNYvgKo4hCuTOKzpjzs8-66" value="" style="verticalLabelPosition=bottom;verticalAlign=top;html=1;shape=mxgraph.basic.4_point_star_2;dx=0.93;fontFamily=Comic Sans MS;fontSize=22;fillColor=#f8cecc;gradientColor=#ea6b66;strokeColor=#b85450;" vertex="1" parent="gNYvgKo4hCuTOKzpjzs8-2">
          <mxGeometry x="143.5" y="80" width="38" height="24" as="geometry" />
        </mxCell>
        <mxCell id="gNYvgKo4hCuTOKzpjzs8-67" value="" style="verticalLabelPosition=bottom;verticalAlign=top;html=1;shape=mxgraph.basic.4_point_star_2;dx=0.93;fontFamily=Comic Sans MS;fontSize=22;fillColor=#e6d0de;gradientColor=#d5739d;strokeColor=#996185;" vertex="1" parent="gNYvgKo4hCuTOKzpjzs8-2">
          <mxGeometry x="153.5" y="90" width="38" height="24" as="geometry" />
        </mxCell>
        <mxCell id="gNYvgKo4hCuTOKzpjzs8-68" value="" style="verticalLabelPosition=bottom;verticalAlign=top;html=1;shape=mxgraph.basic.4_point_star_2;dx=0.93;fontFamily=Comic Sans MS;fontSize=22;fillColor=#f8cecc;gradientColor=#ea6b66;strokeColor=#b85450;" vertex="1" parent="gNYvgKo4hCuTOKzpjzs8-2">
          <mxGeometry x="163.5" y="80" width="38" height="24" as="geometry" />
        </mxCell>
        <mxCell id="gNYvgKo4hCuTOKzpjzs8-69" value="" style="verticalLabelPosition=bottom;verticalAlign=top;html=1;shape=mxgraph.basic.4_point_star_2;dx=0.93;fontFamily=Comic Sans MS;fontSize=22;fillColor=#f8cecc;gradientColor=#ea6b66;strokeColor=#b85450;" vertex="1" parent="gNYvgKo4hCuTOKzpjzs8-2">
          <mxGeometry x="188.5" y="110" width="38" height="24" as="geometry" />
        </mxCell>
        <mxCell id="gNYvgKo4hCuTOKzpjzs8-70" value="" style="verticalLabelPosition=bottom;verticalAlign=top;html=1;shape=mxgraph.basic.4_point_star_2;dx=0.93;fontFamily=Comic Sans MS;fontSize=22;fillColor=#f8cecc;gradientColor=#ea6b66;strokeColor=#b85450;" vertex="1" parent="gNYvgKo4hCuTOKzpjzs8-2">
          <mxGeometry x="123.5" y="60" width="38" height="24" as="geometry" />
        </mxCell>
        <mxCell id="gNYvgKo4hCuTOKzpjzs8-71" value="" style="verticalLabelPosition=bottom;verticalAlign=top;html=1;shape=mxgraph.basic.4_point_star_2;dx=0.93;fontFamily=Comic Sans MS;fontSize=22;fillColor=#e6d0de;gradientColor=#d5739d;strokeColor=#996185;" vertex="1" parent="gNYvgKo4hCuTOKzpjzs8-2">
          <mxGeometry x="198.5" y="80" width="38" height="24" as="geometry" />
        </mxCell>
        <mxCell id="gNYvgKo4hCuTOKzpjzs8-72" value="" style="verticalLabelPosition=bottom;verticalAlign=top;html=1;shape=mxgraph.basic.4_point_star_2;dx=0.93;fontFamily=Comic Sans MS;fontSize=22;fillColor=#e6d0de;gradientColor=#d5739d;strokeColor=#996185;" vertex="1" parent="gNYvgKo4hCuTOKzpjzs8-2">
          <mxGeometry x="143.5" y="40" width="38" height="24" as="geometry" />
        </mxCell>
        <mxCell id="gNYvgKo4hCuTOKzpjzs8-73" value="" style="verticalLabelPosition=bottom;verticalAlign=top;html=1;shape=mxgraph.basic.4_point_star_2;dx=0.93;fontFamily=Comic Sans MS;fontSize=22;fillColor=#e6d0de;gradientColor=#d5739d;strokeColor=#996185;" vertex="1" parent="gNYvgKo4hCuTOKzpjzs8-2">
          <mxGeometry x="103.5" y="60" width="38" height="24" as="geometry" />
        </mxCell>
        <mxCell id="gNYvgKo4hCuTOKzpjzs8-33" value="" style="verticalLabelPosition=bottom;verticalAlign=top;html=1;shape=mxgraph.basic.4_point_star_2;dx=0.93;fontFamily=Comic Sans MS;fontSize=22;fillColor=#f8cecc;gradientColor=#ea6b66;strokeColor=#b85450;" vertex="1" parent="gNYvgKo4hCuTOKzpjzs8-2">
          <mxGeometry x="90" y="47" width="50" height="40" as="geometry" />
        </mxCell>
        <mxCell id="gNYvgKo4hCuTOKzpjzs8-34" value="" style="verticalLabelPosition=bottom;verticalAlign=top;html=1;shape=mxgraph.basic.4_point_star_2;dx=0.93;fontFamily=Comic Sans MS;fontSize=22;fillColor=#f8cecc;gradientColor=#ea6b66;strokeColor=#b85450;" vertex="1" parent="gNYvgKo4hCuTOKzpjzs8-2">
          <mxGeometry x="111.5" y="20" width="30" height="30" as="geometry" />
        </mxCell>
        <mxCell id="gNYvgKo4hCuTOKzpjzs8-35" value="" style="verticalLabelPosition=bottom;verticalAlign=top;html=1;shape=mxgraph.basic.4_point_star_2;dx=0.93;fontFamily=Comic Sans MS;fontSize=22;fillColor=#f8cecc;gradientColor=#ea6b66;strokeColor=#b85450;" vertex="1" parent="gNYvgKo4hCuTOKzpjzs8-2">
          <mxGeometry x="110" y="67" width="50" height="40" as="geometry" />
        </mxCell>
        <mxCell id="gNYvgKo4hCuTOKzpjzs8-36" value="" style="verticalLabelPosition=bottom;verticalAlign=top;html=1;shape=mxgraph.basic.4_point_star_2;dx=0.93;fontFamily=Comic Sans MS;fontSize=22;fillColor=#e6d0de;gradientColor=#d5739d;strokeColor=#996185;" vertex="1" parent="gNYvgKo4hCuTOKzpjzs8-2">
          <mxGeometry x="120" y="77" width="50" height="40" as="geometry" />
        </mxCell>
        <mxCell id="gNYvgKo4hCuTOKzpjzs8-37" value="" style="verticalLabelPosition=bottom;verticalAlign=top;html=1;shape=mxgraph.basic.4_point_star_2;dx=0.93;fontFamily=Comic Sans MS;fontSize=22;fillColor=#f8cecc;gradientColor=#ea6b66;strokeColor=#b85450;" vertex="1" parent="gNYvgKo4hCuTOKzpjzs8-2">
          <mxGeometry x="130" y="67" width="50" height="40" as="geometry" />
        </mxCell>
        <mxCell id="gNYvgKo4hCuTOKzpjzs8-38" value="" style="verticalLabelPosition=bottom;verticalAlign=top;html=1;shape=mxgraph.basic.4_point_star_2;dx=0.93;fontFamily=Comic Sans MS;fontSize=22;fillColor=#f8cecc;gradientColor=#ea6b66;strokeColor=#b85450;" vertex="1" parent="gNYvgKo4hCuTOKzpjzs8-2">
          <mxGeometry x="155" y="97" width="50" height="40" as="geometry" />
        </mxCell>
        <mxCell id="gNYvgKo4hCuTOKzpjzs8-40" value="" style="verticalLabelPosition=bottom;verticalAlign=top;html=1;shape=mxgraph.basic.4_point_star_2;dx=0.93;fontFamily=Comic Sans MS;fontSize=22;fillColor=#f8cecc;gradientColor=#ea6b66;strokeColor=#b85450;" vertex="1" parent="gNYvgKo4hCuTOKzpjzs8-2">
          <mxGeometry x="90" y="47" width="50" height="40" as="geometry" />
        </mxCell>
        <mxCell id="gNYvgKo4hCuTOKzpjzs8-41" value="" style="verticalLabelPosition=bottom;verticalAlign=top;html=1;shape=mxgraph.basic.4_point_star_2;dx=0.93;fontFamily=Comic Sans MS;fontSize=22;fillColor=#e6d0de;gradientColor=#d5739d;strokeColor=#996185;" vertex="1" parent="gNYvgKo4hCuTOKzpjzs8-2">
          <mxGeometry x="165" y="67" width="50" height="40" as="geometry" />
        </mxCell>
        <mxCell id="gNYvgKo4hCuTOKzpjzs8-42" value="" style="verticalLabelPosition=bottom;verticalAlign=top;html=1;shape=mxgraph.basic.4_point_star_2;dx=0.93;fontFamily=Comic Sans MS;fontSize=22;fillColor=#e6d0de;gradientColor=#d5739d;strokeColor=#996185;" vertex="1" parent="gNYvgKo4hCuTOKzpjzs8-2">
          <mxGeometry x="110" y="27" width="50" height="40" as="geometry" />
        </mxCell>
        <mxCell id="gNYvgKo4hCuTOKzpjzs8-43" value="" style="verticalLabelPosition=bottom;verticalAlign=top;html=1;shape=mxgraph.basic.4_point_star_2;dx=0.88;fontFamily=Comic Sans MS;fontSize=22;fillColor=#e6d0de;gradientColor=#d5739d;strokeColor=#996185;" vertex="1" parent="gNYvgKo4hCuTOKzpjzs8-2">
          <mxGeometry x="80" y="20" width="50" height="40" as="geometry" />
        </mxCell>
        <mxCell id="gNYvgKo4hCuTOKzpjzs8-11" value="" style="shape=mxgraph.arrows2.wedgeArrow;html=1;fillColor=#000000;bendable=0;rounded=0;fontFamily=Comic Sans MS;fontSize=22;fontColor=default;" edge="1" parent="gNYvgKo4hCuTOKzpjzs8-2">
          <mxGeometry width="100" height="100" relative="1" as="geometry">
            <mxPoint x="201.5" y="157" as="sourcePoint" />
            <mxPoint x="181.5" y="137" as="targetPoint" />
          </mxGeometry>
        </mxCell>
        <mxCell id="gNYvgKo4hCuTOKzpjzs8-84" value="Pop-up-manu" style="swimlane;fontStyle=0;childLayout=stackLayout;horizontal=1;startSize=20;horizontalStack=0;resizeParent=1;resizeParentMax=0;resizeLast=0;collapsible=1;marginBottom=0;fontFamily=Comic Sans MS;fontSize=10;fillColor=#dae8fc;gradientColor=#7ea6e0;strokeColor=#6c8ebf;" vertex="1" parent="gNYvgKo4hCuTOKzpjzs8-2">
          <mxGeometry y="44" width="100" height="65" as="geometry" />
        </mxCell>
        <mxCell id="gNYvgKo4hCuTOKzpjzs8-85" value="chenge_color()" style="text;strokeColor=none;fillColor=none;align=left;verticalAlign=middle;spacingLeft=4;spacingRight=4;overflow=hidden;points=[[0,0.5],[1,0.5]];portConstraint=eastwest;rotatable=0;fontFamily=Comic Sans MS;fontSize=10;fontColor=#FF3333;" vertex="1" parent="gNYvgKo4hCuTOKzpjzs8-84">
          <mxGeometry y="20" width="100" height="15" as="geometry" />
        </mxCell>
        <mxCell id="gNYvgKo4hCuTOKzpjzs8-86" value="shape(&quot;treangle&quot;)" style="text;strokeColor=none;fillColor=none;align=left;verticalAlign=middle;spacingLeft=4;spacingRight=4;overflow=hidden;points=[[0,0.5],[1,0.5]];portConstraint=eastwest;rotatable=0;fontFamily=Comic Sans MS;fontSize=10;fontColor=#FF0000;" vertex="1" parent="gNYvgKo4hCuTOKzpjzs8-84">
          <mxGeometry y="35" width="100" height="15" as="geometry" />
        </mxCell>
        <mxCell id="gNYvgKo4hCuTOKzpjzs8-87" value="get_figure(&quot;model&quot;)" style="text;strokeColor=none;fillColor=none;align=left;verticalAlign=middle;spacingLeft=4;spacingRight=4;overflow=hidden;points=[[0,0.5],[1,0.5]];portConstraint=eastwest;rotatable=0;fontFamily=Comic Sans MS;fontSize=10;fontColor=#FF0000;" vertex="1" parent="gNYvgKo4hCuTOKzpjzs8-84">
          <mxGeometry y="50" width="100" height="15" as="geometry" />
        </mxCell>
        <mxCell id="gNYvgKo4hCuTOKzpjzs8-6" value="&lt;font style=&quot;font-size: 22px;&quot;&gt;Click-to-start&lt;/font&gt;" style="text;html=1;strokeColor=none;fillColor=none;align=center;verticalAlign=middle;whiteSpace=wrap;rounded=0;fontColor=default;" vertex="1" parent="1">
          <mxGeometry x="-50" y="630" width="200" height="30" as="geometry" />
        </mxCell>
        <mxCell id="gNYvgKo4hCuTOKzpjzs8-89" style="edgeStyle=orthogonalEdgeStyle;rounded=0;orthogonalLoop=1;jettySize=auto;html=1;fontFamily=Comic Sans MS;fontSize=19;fontColor=#FF0000;entryX=0.1;entryY=0.246;entryDx=0;entryDy=0;entryPerimeter=0;fillColor=#dae8fc;gradientColor=#7ea6e0;strokeColor=#6c8ebf;" edge="1" parent="1" source="gNYvgKo4hCuTOKzpjzs8-7" target="gNYvgKo4hCuTOKzpjzs8-84">
          <mxGeometry relative="1" as="geometry">
            <mxPoint x="140" y="100" as="targetPoint" />
            <Array as="points">
              <mxPoint x="800" y="95" />
              <mxPoint x="800" y="20" />
              <mxPoint x="120" y="20" />
              <mxPoint x="120" y="120" />
            </Array>
          </mxGeometry>
        </mxCell>
        <mxCell id="gNYvgKo4hCuTOKzpjzs8-7" value="&lt;font style=&quot;font-size: 19px;&quot;&gt;(Pop-up-menu with comand)&lt;/font&gt;" style="text;html=1;strokeColor=#6c8ebf;fillColor=#dae8fc;align=center;verticalAlign=middle;whiteSpace=wrap;rounded=0;fontSize=19;gradientColor=#7ea6e0;" vertex="1" parent="1">
          <mxGeometry x="520" y="80" width="250" height="30" as="geometry" />
        </mxCell>
        <mxCell id="gNYvgKo4hCuTOKzpjzs8-5" value="" style="endArrow=classic;html=1;rounded=0;fontColor=default;entryX=1;entryY=0.25;entryDx=0;entryDy=0;strokeColor=#FF0000;" edge="1" parent="1" target="gNYvgKo4hCuTOKzpjzs8-3">
          <mxGeometry width="50" height="50" relative="1" as="geometry">
            <mxPoint x="720" y="80" as="sourcePoint" />
            <mxPoint x="401.9200000000001" y="102.89999999999998" as="targetPoint" />
            <Array as="points">
              <mxPoint x="520" y="80" />
              <mxPoint x="490" y="140" />
            </Array>
          </mxGeometry>
        </mxCell>
        <mxCell id="gNYvgKo4hCuTOKzpjzs8-90" value="" style="endArrow=block;startArrow=diamond;html=1;rounded=0;fontFamily=Comic Sans MS;fontSize=19;fontColor=#FF0000;strokeColor=#FF0000;endFill=1;startFill=0;" edge="1" parent="1">
          <mxGeometry width="50" height="50" relative="1" as="geometry">
            <mxPoint x="-320" y="120" as="sourcePoint" />
            <mxPoint x="170" y="120" as="targetPoint" />
          </mxGeometry>
        </mxCell>
        <mxCell id="gNYvgKo4hCuTOKzpjzs8-91" value="&lt;h4 style=&quot;font-size: 18px;&quot;&gt;Heading&lt;/h4&gt;&lt;p style=&quot;&quot;&gt;&lt;font style=&quot;font-size: 16px;&quot;&gt;Lorem ipsum dolor sit amet, consectetur adipisicing elit, sed do eiusmod tempor incididunt ut labore et dolore magna aliqua.&lt;/font&gt;&lt;/p&gt;" style="text;html=1;strokeColor=none;fillColor=none;spacing=5;spacingTop=-20;whiteSpace=wrap;overflow=hidden;rounded=0;fontFamily=Comic Sans MS;fontSize=18;fontColor=#FF0000;" vertex="1" parent="1">
          <mxGeometry x="-320" y="120" width="190" height="40" as="geometry" />
        </mxCell>
        <mxCell id="gNYvgKo4hCuTOKzpjzs8-92" value="" style="rounded=1;absoluteArcSize=1;html=1;arcSize=10;fontFamily=Comic Sans MS;fontSize=16;fontColor=#FF0000;" vertex="1" parent="1">
          <mxGeometry x="-230" y="720" width="100" height="100" as="geometry" />
        </mxCell>
        <mxCell id="gNYvgKo4hCuTOKzpjzs8-93" value="main" style="html=1;shape=mxgraph.er.anchor;whiteSpace=wrap;fontFamily=Comic Sans MS;fontSize=16;fontColor=#FF0000;" vertex="1" parent="gNYvgKo4hCuTOKzpjzs8-92">
          <mxGeometry width="50" height="100" as="geometry" />
        </mxCell>
        <mxCell id="gNYvgKo4hCuTOKzpjzs8-94" value="sub" style="rounded=1;absoluteArcSize=1;html=1;arcSize=10;whiteSpace=wrap;points=[];strokeColor=inherit;fillColor=inherit;fontFamily=Comic Sans MS;fontSize=16;fontColor=#FF0000;" vertex="1" parent="gNYvgKo4hCuTOKzpjzs8-92">
          <mxGeometry x="50" y="5" width="45" height="35" as="geometry" />
        </mxCell>
      </root>
    </mxGraphModel>
  </diagram>
</mxfile>
